<?xml version="1.0" encoding="utf-8" standalone="no"?>
<!DOCTYPE svg PUBLIC "-//W3C//DTD SVG 1.1//EN"
  "http://www.w3.org/Graphics/SVG/1.1/DTD/svg11.dtd">
<!-- Created with matplotlib (http://matplotlib.org/) -->
<svg height="288pt" version="1.1" viewBox="0 0 540 288" width="540pt" xmlns="http://www.w3.org/2000/svg" xmlns:xlink="http://www.w3.org/1999/xlink">
 <defs>
  <style type="text/css">
*{stroke-linecap:butt;stroke-linejoin:round;stroke-miterlimit:100000;}
  </style>
 </defs>
 <g id="figure_1">
  <g id="patch_1">
   <path d="M 0 288 
L 540 288 
L 540 0 
L 0 0 
z
" style="fill:#ffffff;"/>
  </g>
  <g id="axes_1">
   <g id="patch_2">
    <path d="M 67.5 252 
L 257.727273 252 
L 257.727273 28.8 
L 67.5 28.8 
z
" style="fill:#eaeaf2;"/>
   </g>
   <g id="matplotlib.axis_1">
    <g id="xtick_1">
     <g id="line2d_1">
      <path clip-path="url(#p304e22c1a3)" d="M 67.5 252 
L 67.5 28.8 
" style="fill:none;stroke:#ffffff;stroke-linecap:round;"/>
     </g>
     <g id="line2d_2"/>
     <g id="line2d_3"/>
     <g id="text_1">
      <!-- 1816 -->
      <defs>
       <path d="M 32.71875 3.421875 
Q 39.59375 3.421875 43.296875 8.46875 
Q 47.015625 13.53125 47.015625 23 
Q 47.015625 32.46875 43.296875 37.515625 
Q 39.59375 42.578125 32.71875 42.578125 
Q 25.734375 42.578125 22.0625 37.6875 
Q 18.40625 32.8125 18.40625 23.578125 
Q 18.40625 13.875 22.109375 8.640625 
Q 25.828125 3.421875 32.71875 3.421875 
M 16.796875 40.140625 
Q 20.125 43.796875 24.3125 45.59375 
Q 28.515625 47.40625 33.796875 47.40625 
Q 44.671875 47.40625 51 40.859375 
Q 57.328125 34.328125 57.328125 23 
Q 57.328125 11.921875 50.515625 5.25 
Q 43.703125 -1.421875 32.328125 -1.421875 
Q 19.96875 -1.421875 13.328125 7.78125 
Q 6.6875 17 6.6875 34.078125 
Q 6.6875 53.21875 14.546875 63.71875 
Q 22.40625 74.21875 36.71875 74.21875 
Q 40.578125 74.21875 44.828125 73.484375 
Q 49.078125 72.75 53.515625 71.296875 
L 53.515625 59.28125 
L 48 59.28125 
Q 47.40625 64.203125 44.234375 66.796875 
Q 41.0625 69.390625 35.6875 69.390625 
Q 26.21875 69.390625 21.578125 62.203125 
Q 16.9375 55.03125 16.796875 40.140625 
" id="BitstreamVeraSerif-Roman-36"/>
       <path d="M 46.578125 19.921875 
Q 46.578125 27.734375 42.6875 32.046875 
Q 38.8125 36.375 31.78125 36.375 
Q 24.75 36.375 20.875 32.046875 
Q 17 27.734375 17 19.921875 
Q 17 12.0625 20.875 7.734375 
Q 24.75 3.421875 31.78125 3.421875 
Q 38.8125 3.421875 42.6875 7.734375 
Q 46.578125 12.0625 46.578125 19.921875 
M 44.578125 55.328125 
Q 44.578125 61.96875 41.203125 65.671875 
Q 37.84375 69.390625 31.78125 69.390625 
Q 25.78125 69.390625 22.390625 65.671875 
Q 19 61.96875 19 55.328125 
Q 19 48.640625 22.390625 44.921875 
Q 25.78125 41.21875 31.78125 41.21875 
Q 37.84375 41.21875 41.203125 44.921875 
Q 44.578125 48.640625 44.578125 55.328125 
M 39.3125 38.8125 
Q 47.609375 37.703125 52.25 32.6875 
Q 56.890625 27.6875 56.890625 19.921875 
Q 56.890625 9.671875 50.390625 4.125 
Q 43.890625 -1.421875 31.78125 -1.421875 
Q 19.734375 -1.421875 13.203125 4.125 
Q 6.6875 9.671875 6.6875 19.921875 
Q 6.6875 27.6875 11.328125 32.6875 
Q 15.96875 37.703125 24.3125 38.8125 
Q 16.9375 40.140625 13 44.40625 
Q 9.078125 48.6875 9.078125 55.328125 
Q 9.078125 64.109375 15.125 69.15625 
Q 21.1875 74.21875 31.78125 74.21875 
Q 42.390625 74.21875 48.4375 69.15625 
Q 54.5 64.109375 54.5 55.328125 
Q 54.5 48.6875 50.5625 44.40625 
Q 46.625 40.140625 39.3125 38.8125 
" id="BitstreamVeraSerif-Roman-38"/>
       <path d="M 14.203125 0 
L 14.203125 5.171875 
L 26.90625 5.171875 
L 26.90625 65.828125 
L 12.203125 56.296875 
L 12.203125 62.703125 
L 29.984375 74.21875 
L 36.71875 74.21875 
L 36.71875 5.171875 
L 49.421875 5.171875 
L 49.421875 0 
z
" id="BitstreamVeraSerif-Roman-31"/>
      </defs>
      <g style="fill:#262626;" transform="translate(69.7075 279.36)rotate(-90.0)scale(0.08 -0.08)">
       <use xlink:href="#BitstreamVeraSerif-Roman-31"/>
       <use x="63.623046875" xlink:href="#BitstreamVeraSerif-Roman-38"/>
       <use x="127.24609375" xlink:href="#BitstreamVeraSerif-Roman-31"/>
       <use x="190.869140625" xlink:href="#BitstreamVeraSerif-Roman-36"/>
      </g>
     </g>
    </g>
    <g id="xtick_2">
     <g id="line2d_4">
      <path clip-path="url(#p304e22c1a3)" d="M 86.428087 252 
L 86.428087 28.8 
" style="fill:none;stroke:#ffffff;stroke-linecap:round;"/>
     </g>
     <g id="line2d_5"/>
     <g id="line2d_6"/>
     <g id="text_2">
      <!-- 1836 -->
      <defs>
       <path d="M 9.71875 69.828125 
Q 15.4375 71.96875 20.671875 73.09375 
Q 25.921875 74.21875 30.515625 74.21875 
Q 41.21875 74.21875 47.21875 69.59375 
Q 53.21875 64.984375 53.21875 56.78125 
Q 53.21875 50.203125 49.0625 45.78125 
Q 44.921875 41.359375 37.3125 39.796875 
Q 46.296875 38.53125 51.25 33.28125 
Q 56.203125 28.03125 56.203125 19.671875 
Q 56.203125 9.46875 49.34375 4.015625 
Q 42.484375 -1.421875 29.59375 -1.421875 
Q 23.875 -1.421875 18.421875 -0.1875 
Q 12.984375 1.03125 7.625 3.515625 
L 7.625 17.671875 
L 13.09375 17.671875 
Q 13.578125 10.640625 17.828125 7.03125 
Q 22.078125 3.421875 29.78125 3.421875 
Q 37.25 3.421875 41.578125 7.734375 
Q 45.90625 12.0625 45.90625 19.578125 
Q 45.90625 28.171875 41.453125 32.59375 
Q 37.015625 37.015625 28.421875 37.015625 
L 23.78125 37.015625 
L 23.78125 42 
L 26.21875 42 
Q 34.765625 42 39.03125 45.53125 
Q 43.3125 49.078125 43.3125 56.203125 
Q 43.3125 62.59375 39.796875 65.984375 
Q 36.28125 69.390625 29.6875 69.390625 
Q 23.09375 69.390625 19.453125 66.265625 
Q 15.828125 63.140625 15.1875 56.984375 
L 9.71875 56.984375 
z
" id="BitstreamVeraSerif-Roman-33"/>
      </defs>
      <g style="fill:#262626;" transform="translate(88.6355868385 279.36)rotate(-90.0)scale(0.08 -0.08)">
       <use xlink:href="#BitstreamVeraSerif-Roman-31"/>
       <use x="63.623046875" xlink:href="#BitstreamVeraSerif-Roman-38"/>
       <use x="127.24609375" xlink:href="#BitstreamVeraSerif-Roman-33"/>
       <use x="190.869140625" xlink:href="#BitstreamVeraSerif-Roman-36"/>
      </g>
     </g>
    </g>
    <g id="xtick_3">
     <g id="line2d_7">
      <path clip-path="url(#p304e22c1a3)" d="M 105.356174 252 
L 105.356174 28.8 
" style="fill:none;stroke:#ffffff;stroke-linecap:round;"/>
     </g>
     <g id="line2d_8"/>
     <g id="line2d_9"/>
     <g id="text_3">
      <!-- 1856 -->
      <defs>
       <path d="M 50.296875 72.90625 
L 50.296875 64.890625 
L 16.890625 64.890625 
L 16.890625 44 
Q 19.4375 45.75 22.828125 46.625 
Q 26.21875 47.515625 30.421875 47.515625 
Q 42.234375 47.515625 49.0625 40.96875 
Q 55.90625 34.421875 55.90625 23.09375 
Q 55.90625 11.53125 49 5.046875 
Q 42.09375 -1.421875 29.59375 -1.421875 
Q 24.5625 -1.421875 19.28125 -0.1875 
Q 14.015625 1.03125 8.5 3.515625 
L 8.5 17.671875 
L 14.015625 17.671875 
Q 14.453125 10.75 18.421875 7.078125 
Q 22.40625 3.421875 29.59375 3.421875 
Q 37.3125 3.421875 41.453125 8.5 
Q 45.609375 13.578125 45.609375 23.09375 
Q 45.609375 32.5625 41.484375 37.609375 
Q 37.359375 42.671875 29.59375 42.671875 
Q 25.203125 42.671875 21.84375 41.109375 
Q 18.5 39.546875 15.921875 36.28125 
L 11.71875 36.28125 
L 11.71875 72.90625 
z
" id="BitstreamVeraSerif-Roman-35"/>
      </defs>
      <g style="fill:#262626;" transform="translate(107.563673677 279.36)rotate(-90.0)scale(0.08 -0.08)">
       <use xlink:href="#BitstreamVeraSerif-Roman-31"/>
       <use x="63.623046875" xlink:href="#BitstreamVeraSerif-Roman-38"/>
       <use x="127.24609375" xlink:href="#BitstreamVeraSerif-Roman-35"/>
       <use x="190.869140625" xlink:href="#BitstreamVeraSerif-Roman-36"/>
      </g>
     </g>
    </g>
    <g id="xtick_4">
     <g id="line2d_10">
      <path clip-path="url(#p304e22c1a3)" d="M 124.284261 252 
L 124.284261 28.8 
" style="fill:none;stroke:#ffffff;stroke-linecap:round;"/>
     </g>
     <g id="line2d_11"/>
     <g id="line2d_12"/>
     <g id="text_4">
      <!-- 1876 -->
      <defs>
       <path d="M 56.390625 67.921875 
L 27.875 0 
L 20.609375 0 
L 47.796875 64.890625 
L 14.109375 64.890625 
L 14.109375 55.90625 
L 8.40625 55.90625 
L 8.40625 72.90625 
L 56.390625 72.90625 
z
" id="BitstreamVeraSerif-Roman-37"/>
      </defs>
      <g style="fill:#262626;" transform="translate(126.491760516 279.36)rotate(-90.0)scale(0.08 -0.08)">
       <use xlink:href="#BitstreamVeraSerif-Roman-31"/>
       <use x="63.623046875" xlink:href="#BitstreamVeraSerif-Roman-38"/>
       <use x="127.24609375" xlink:href="#BitstreamVeraSerif-Roman-37"/>
       <use x="190.869140625" xlink:href="#BitstreamVeraSerif-Roman-36"/>
      </g>
     </g>
    </g>
    <g id="xtick_5">
     <g id="line2d_13">
      <path clip-path="url(#p304e22c1a3)" d="M 143.212347 252 
L 143.212347 28.8 
" style="fill:none;stroke:#ffffff;stroke-linecap:round;"/>
     </g>
     <g id="line2d_14"/>
     <g id="line2d_15"/>
     <g id="text_5">
      <!-- 1896 -->
      <defs>
       <path d="M 46.78125 32.671875 
Q 43.5 29 39.25 27.1875 
Q 35.015625 25.390625 29.6875 25.390625 
Q 18.84375 25.390625 12.5625 31.9375 
Q 6.296875 38.484375 6.296875 49.8125 
Q 6.296875 60.890625 13.109375 67.546875 
Q 19.921875 74.21875 31.296875 74.21875 
Q 43.65625 74.21875 50.265625 65.015625 
Q 56.890625 55.8125 56.890625 38.71875 
Q 56.890625 19.578125 49.015625 9.078125 
Q 41.15625 -1.421875 26.90625 -1.421875 
Q 23.046875 -1.421875 18.796875 -0.6875 
Q 14.546875 0.046875 10.109375 1.515625 
L 10.109375 13.625 
L 15.578125 13.625 
Q 16.21875 8.6875 19.390625 6.046875 
Q 22.5625 3.421875 27.875 3.421875 
Q 37.359375 3.421875 41.984375 10.5625 
Q 46.625 17.71875 46.78125 32.671875 
M 30.90625 69.390625 
Q 23.96875 69.390625 20.28125 64.328125 
Q 16.609375 59.28125 16.609375 49.8125 
Q 16.609375 40.328125 20.28125 35.25 
Q 23.96875 30.171875 30.90625 30.171875 
Q 37.84375 30.171875 41.53125 35.078125 
Q 45.21875 39.984375 45.21875 49.21875 
Q 45.21875 58.9375 41.5 64.15625 
Q 37.796875 69.390625 30.90625 69.390625 
" id="BitstreamVeraSerif-Roman-39"/>
      </defs>
      <g style="fill:#262626;" transform="translate(145.419847354 279.36)rotate(-90.0)scale(0.08 -0.08)">
       <use xlink:href="#BitstreamVeraSerif-Roman-31"/>
       <use x="63.623046875" xlink:href="#BitstreamVeraSerif-Roman-38"/>
       <use x="127.24609375" xlink:href="#BitstreamVeraSerif-Roman-39"/>
       <use x="190.869140625" xlink:href="#BitstreamVeraSerif-Roman-36"/>
      </g>
     </g>
    </g>
    <g id="xtick_6">
     <g id="line2d_16">
      <path clip-path="url(#p304e22c1a3)" d="M 162.140434 252 
L 162.140434 28.8 
" style="fill:none;stroke:#ffffff;stroke-linecap:round;"/>
     </g>
     <g id="line2d_17"/>
     <g id="line2d_18"/>
     <g id="text_6">
      <!-- 1916 -->
      <g style="fill:#262626;" transform="translate(164.347934193 279.36)rotate(-90.0)scale(0.08 -0.08)">
       <use xlink:href="#BitstreamVeraSerif-Roman-31"/>
       <use x="63.623046875" xlink:href="#BitstreamVeraSerif-Roman-39"/>
       <use x="127.24609375" xlink:href="#BitstreamVeraSerif-Roman-31"/>
       <use x="190.869140625" xlink:href="#BitstreamVeraSerif-Roman-36"/>
      </g>
     </g>
    </g>
    <g id="xtick_7">
     <g id="line2d_19">
      <path clip-path="url(#p304e22c1a3)" d="M 181.068521 252 
L 181.068521 28.8 
" style="fill:none;stroke:#ffffff;stroke-linecap:round;"/>
     </g>
     <g id="line2d_20"/>
     <g id="line2d_21"/>
     <g id="text_7">
      <!-- 1936 -->
      <g style="fill:#262626;" transform="translate(183.276021031 279.36)rotate(-90.0)scale(0.08 -0.08)">
       <use xlink:href="#BitstreamVeraSerif-Roman-31"/>
       <use x="63.623046875" xlink:href="#BitstreamVeraSerif-Roman-39"/>
       <use x="127.24609375" xlink:href="#BitstreamVeraSerif-Roman-33"/>
       <use x="190.869140625" xlink:href="#BitstreamVeraSerif-Roman-36"/>
      </g>
     </g>
    </g>
    <g id="xtick_8">
     <g id="line2d_22">
      <path clip-path="url(#p304e22c1a3)" d="M 199.996608 252 
L 199.996608 28.8 
" style="fill:none;stroke:#ffffff;stroke-linecap:round;"/>
     </g>
     <g id="line2d_23"/>
     <g id="line2d_24"/>
     <g id="text_8">
      <!-- 1956 -->
      <g style="fill:#262626;" transform="translate(202.20410787 279.36)rotate(-90.0)scale(0.08 -0.08)">
       <use xlink:href="#BitstreamVeraSerif-Roman-31"/>
       <use x="63.623046875" xlink:href="#BitstreamVeraSerif-Roman-39"/>
       <use x="127.24609375" xlink:href="#BitstreamVeraSerif-Roman-35"/>
       <use x="190.869140625" xlink:href="#BitstreamVeraSerif-Roman-36"/>
      </g>
     </g>
    </g>
    <g id="xtick_9">
     <g id="line2d_25">
      <path clip-path="url(#p304e22c1a3)" d="M 218.924695 252 
L 218.924695 28.8 
" style="fill:none;stroke:#ffffff;stroke-linecap:round;"/>
     </g>
     <g id="line2d_26"/>
     <g id="line2d_27"/>
     <g id="text_9">
      <!-- 1976 -->
      <g style="fill:#262626;" transform="translate(221.132194708 279.36)rotate(-90.0)scale(0.08 -0.08)">
       <use xlink:href="#BitstreamVeraSerif-Roman-31"/>
       <use x="63.623046875" xlink:href="#BitstreamVeraSerif-Roman-39"/>
       <use x="127.24609375" xlink:href="#BitstreamVeraSerif-Roman-37"/>
       <use x="190.869140625" xlink:href="#BitstreamVeraSerif-Roman-36"/>
      </g>
     </g>
    </g>
    <g id="xtick_10">
     <g id="line2d_28">
      <path clip-path="url(#p304e22c1a3)" d="M 237.852782 252 
L 237.852782 28.8 
" style="fill:none;stroke:#ffffff;stroke-linecap:round;"/>
     </g>
     <g id="line2d_29"/>
     <g id="line2d_30"/>
     <g id="text_10">
      <!-- 1996 -->
      <g style="fill:#262626;" transform="translate(240.060281547 279.36)rotate(-90.0)scale(0.08 -0.08)">
       <use xlink:href="#BitstreamVeraSerif-Roman-31"/>
       <use x="63.623046875" xlink:href="#BitstreamVeraSerif-Roman-39"/>
       <use x="127.24609375" xlink:href="#BitstreamVeraSerif-Roman-39"/>
       <use x="190.869140625" xlink:href="#BitstreamVeraSerif-Roman-36"/>
      </g>
     </g>
    </g>
    <g id="xtick_11">
     <g id="line2d_31">
      <path clip-path="url(#p304e22c1a3)" d="M 256.780868 252 
L 256.780868 28.8 
" style="fill:none;stroke:#ffffff;stroke-linecap:round;"/>
     </g>
     <g id="line2d_32"/>
     <g id="line2d_33"/>
     <g id="text_11">
      <!-- 2016 -->
      <defs>
       <path d="M 31.78125 3.421875 
Q 39.265625 3.421875 42.96875 11.625 
Q 46.6875 19.828125 46.6875 36.375 
Q 46.6875 52.984375 42.96875 61.1875 
Q 39.265625 69.390625 31.78125 69.390625 
Q 24.3125 69.390625 20.59375 61.1875 
Q 16.890625 52.984375 16.890625 36.375 
Q 16.890625 19.828125 20.59375 11.625 
Q 24.3125 3.421875 31.78125 3.421875 
M 31.78125 -1.421875 
Q 19.921875 -1.421875 13.25 8.53125 
Q 6.59375 18.5 6.59375 36.375 
Q 6.59375 54.296875 13.25 64.25 
Q 19.921875 74.21875 31.78125 74.21875 
Q 43.703125 74.21875 50.34375 64.25 
Q 56.984375 54.296875 56.984375 36.375 
Q 56.984375 18.5 50.34375 8.53125 
Q 43.703125 -1.421875 31.78125 -1.421875 
" id="BitstreamVeraSerif-Roman-30"/>
       <path d="M 12.796875 55.515625 
L 7.328125 55.515625 
L 7.328125 68.5 
Q 12.546875 71.296875 17.84375 72.75 
Q 23.140625 74.21875 28.21875 74.21875 
Q 39.59375 74.21875 46.1875 68.703125 
Q 52.78125 63.1875 52.78125 53.71875 
Q 52.78125 43.015625 37.84375 28.125 
Q 36.671875 27 36.078125 26.421875 
L 17.671875 8.015625 
L 48.09375 8.015625 
L 48.09375 17 
L 53.8125 17 
L 53.8125 0 
L 6.78125 0 
L 6.78125 5.328125 
L 28.90625 27.390625 
Q 36.234375 34.71875 39.359375 40.84375 
Q 42.484375 46.96875 42.484375 53.71875 
Q 42.484375 61.078125 38.640625 65.234375 
Q 34.8125 69.390625 28.078125 69.390625 
Q 21.09375 69.390625 17.28125 65.921875 
Q 13.484375 62.453125 12.796875 55.515625 
" id="BitstreamVeraSerif-Roman-32"/>
      </defs>
      <g style="fill:#262626;" transform="translate(258.988368385 279.36)rotate(-90.0)scale(0.08 -0.08)">
       <use xlink:href="#BitstreamVeraSerif-Roman-32"/>
       <use x="63.623046875" xlink:href="#BitstreamVeraSerif-Roman-30"/>
       <use x="127.24609375" xlink:href="#BitstreamVeraSerif-Roman-31"/>
       <use x="190.869140625" xlink:href="#BitstreamVeraSerif-Roman-36"/>
      </g>
     </g>
    </g>
   </g>
   <g id="matplotlib.axis_2">
    <g id="ytick_1">
     <g id="line2d_34">
      <path clip-path="url(#p304e22c1a3)" d="M 67.5 252 
L 257.727273 252 
" style="fill:none;stroke:#ffffff;stroke-linecap:round;"/>
     </g>
     <g id="line2d_35"/>
     <g id="line2d_36"/>
     <g id="text_12">
      <!-- 0% -->
      <defs>
       <path d="M 22.40625 69.671875 
Q 18.109375 69.671875 15.6875 65.625 
Q 13.28125 61.578125 13.28125 54.296875 
Q 13.28125 47.125 15.75 43.015625 
Q 18.21875 38.921875 22.40625 38.921875 
Q 26.5625 38.921875 28.96875 43 
Q 31.390625 47.078125 31.390625 54.296875 
Q 31.390625 61.53125 28.96875 65.59375 
Q 26.5625 69.671875 22.40625 69.671875 
M 72.703125 33.890625 
Q 68.453125 33.890625 66.03125 29.78125 
Q 63.625 25.6875 63.625 18.40625 
Q 63.625 11.234375 66.0625 7.15625 
Q 68.5 3.078125 72.703125 3.078125 
Q 76.90625 3.078125 79.296875 7.15625 
Q 81.6875 11.234375 81.6875 18.40625 
Q 81.6875 25.640625 79.265625 29.765625 
Q 76.859375 33.890625 72.703125 33.890625 
M 72.703125 38.28125 
Q 80.421875 38.28125 84.953125 32.90625 
Q 89.5 27.546875 89.5 18.40625 
Q 89.5 9.28125 84.9375 3.921875 
Q 80.375 -1.421875 72.703125 -1.421875 
Q 64.890625 -1.421875 60.34375 3.921875 
Q 55.8125 9.28125 55.8125 18.40625 
Q 55.8125 27.59375 60.375 32.9375 
Q 64.9375 38.28125 72.703125 38.28125 
M 66.609375 74.21875 
L 74.03125 74.21875 
L 28.421875 -1.421875 
L 21 -1.421875 
z
M 22.3125 74.21875 
Q 30.03125 74.21875 34.609375 68.875 
Q 39.203125 63.53125 39.203125 54.390625 
Q 39.203125 45.171875 34.640625 39.84375 
Q 30.078125 34.515625 22.3125 34.515625 
Q 14.546875 34.515625 10.03125 39.859375 
Q 5.515625 45.21875 5.515625 54.390625 
Q 5.515625 63.484375 10.046875 68.84375 
Q 14.59375 74.21875 22.3125 74.21875 
" id="BitstreamVeraSerif-Roman-25"/>
      </defs>
      <g style="fill:#262626;" transform="translate(47.80875 254.2075)scale(0.08 -0.08)">
       <use xlink:href="#BitstreamVeraSerif-Roman-30"/>
       <use x="63.623046875" xlink:href="#BitstreamVeraSerif-Roman-25"/>
      </g>
     </g>
    </g>
    <g id="ytick_2">
     <g id="line2d_37">
      <path clip-path="url(#p304e22c1a3)" d="M 67.5 196.2 
L 257.727273 196.2 
" style="fill:none;stroke:#ffffff;stroke-linecap:round;"/>
     </g>
     <g id="line2d_38"/>
     <g id="line2d_39"/>
     <g id="text_13">
      <!-- 25% -->
      <g style="fill:#262626;" transform="translate(42.71875 198.4075)scale(0.08 -0.08)">
       <use xlink:href="#BitstreamVeraSerif-Roman-32"/>
       <use x="63.623046875" xlink:href="#BitstreamVeraSerif-Roman-35"/>
       <use x="127.24609375" xlink:href="#BitstreamVeraSerif-Roman-25"/>
      </g>
     </g>
    </g>
    <g id="ytick_3">
     <g id="line2d_40">
      <path clip-path="url(#p304e22c1a3)" d="M 67.5 140.4 
L 257.727273 140.4 
" style="fill:none;stroke:#ffffff;stroke-linecap:round;"/>
     </g>
     <g id="line2d_41"/>
     <g id="line2d_42"/>
     <g id="text_14">
      <!-- 50% -->
      <g style="fill:#262626;" transform="translate(42.71875 142.6075)scale(0.08 -0.08)">
       <use xlink:href="#BitstreamVeraSerif-Roman-35"/>
       <use x="63.623046875" xlink:href="#BitstreamVeraSerif-Roman-30"/>
       <use x="127.24609375" xlink:href="#BitstreamVeraSerif-Roman-25"/>
      </g>
     </g>
    </g>
    <g id="ytick_4">
     <g id="line2d_43">
      <path clip-path="url(#p304e22c1a3)" d="M 67.5 84.6 
L 257.727273 84.6 
" style="fill:none;stroke:#ffffff;stroke-linecap:round;"/>
     </g>
     <g id="line2d_44"/>
     <g id="line2d_45"/>
     <g id="text_15">
      <!-- 75% -->
      <g style="fill:#262626;" transform="translate(42.71875 86.8075)scale(0.08 -0.08)">
       <use xlink:href="#BitstreamVeraSerif-Roman-37"/>
       <use x="63.623046875" xlink:href="#BitstreamVeraSerif-Roman-35"/>
       <use x="127.24609375" xlink:href="#BitstreamVeraSerif-Roman-25"/>
      </g>
     </g>
    </g>
    <g id="ytick_5">
     <g id="line2d_46">
      <path clip-path="url(#p304e22c1a3)" d="M 67.5 28.8 
L 257.727273 28.8 
" style="fill:none;stroke:#ffffff;stroke-linecap:round;"/>
     </g>
     <g id="line2d_47"/>
     <g id="line2d_48"/>
     <g id="text_16">
      <!-- 100% -->
      <g style="fill:#262626;" transform="translate(37.62875 31.0075)scale(0.08 -0.08)">
       <use xlink:href="#BitstreamVeraSerif-Roman-31"/>
       <use x="63.623046875" xlink:href="#BitstreamVeraSerif-Roman-30"/>
       <use x="127.24609375" xlink:href="#BitstreamVeraSerif-Roman-30"/>
       <use x="190.869140625" xlink:href="#BitstreamVeraSerif-Roman-25"/>
      </g>
     </g>
    </g>
   </g>
   <g id="line2d_49">
    <path clip-path="url(#p304e22c1a3)" d="M 67.5 108.514286 
L 68.446404 124.457143 
L 69.392809 81.663158 
L 70.339213 116.727273 
L 71.285617 103.2 
L 72.232022 99.570732 
L 73.178426 133.425 
L 74.12483 113.462069 
L 75.071235 115.902439 
L 76.017639 119.733333 
L 76.964043 143.781818 
L 77.910448 104.782979 
L 78.856852 134.312727 
L 79.803256 120.109091 
L 80.749661 118.863158 
L 82.642469 108.514286 
L 83.588874 105.014634 
L 84.535278 106.742857 
L 85.481682 99.284211 
L 86.428087 94.447059 
L 87.374491 106.92 
L 88.320896 81.942857 
L 89.2673 86.832 
L 90.213704 85.897674 
L 91.160109 64.8 
L 92.106513 115.036364 
L 93.052917 114.141176 
L 93.999322 68.861538 
L 94.945726 84.6 
L 95.89213 76.289362 
L 96.838535 103.2 
L 97.784939 97 
L 98.731343 92.571429 
L 99.677748 107.185714 
L 100.624152 94.84898 
L 101.570556 138.508475 
L 102.516961 111.466667 
L 103.463365 119.966197 
L 104.409769 88.8 
L 105.356174 115.9875 
L 106.302578 68.547945 
L 107.248982 99.965217 
L 108.195387 92.848696 
L 109.141791 101.011765 
L 110.088195 72.811268 
L 111.0346 87.257143 
L 111.981004 114.853012 
L 112.927408 104.461017 
L 113.873813 71.314286 
L 115.766621 92.296552 
L 116.713026 80.466667 
L 117.65943 86.505366 
L 118.605834 94.933333 
L 119.552239 91.927273 
L 120.498643 96.436364 
L 121.445047 90.625352 
L 122.391452 98.339698 
L 123.337856 93.327014 
L 124.284261 85.983471 
L 125.230665 95.676404 
L 126.177069 91.296 
L 127.123474 64.042105 
L 128.069878 72.121519 
L 129.016282 96.3 
L 129.962687 77.358779 
L 130.909091 98.204947 
L 131.855495 90.344118 
L 132.8019 97.6 
L 134.694708 79.42268 
L 135.641113 98.771429 
L 136.587517 87.331469 
L 137.533921 80.307692 
L 138.480326 87.536842 
L 139.42673 86.988327 
L 140.373134 97.126531 
L 141.319539 95.228571 
L 142.265943 85.420588 
L 143.212347 84.360515 
L 144.158752 89.566492 
L 145.105156 85.485714 
L 146.05156 89.485714 
L 146.997965 76.312871 
L 147.944369 71.027027 
L 148.890773 71.166667 
L 149.837178 85.121495 
L 150.783582 92.247716 
L 151.729986 89.089655 
L 152.676391 79.817143 
L 153.622795 84.284746 
L 154.569199 80.678919 
L 155.515604 78.677095 
L 156.462008 80.706977 
L 157.408412 91.003279 
L 158.354817 83.825 
L 159.301221 90.842034 
L 160.247626 99.670073 
L 161.19403 88.927347 
L 162.140434 85.873973 
L 163.086839 87.159633 
L 164.033243 92.981974 
L 164.979647 88.892308 
L 165.926052 106.521429 
L 166.872456 89.899441 
L 167.81886 93.81913 
L 168.765265 89.012093 
L 169.711669 99.432911 
L 170.658073 95.128302 
L 171.604478 93.20597 
L 172.550882 120.854237 
L 174.443691 98.347826 
L 175.390095 91.242857 
L 176.336499 91.942105 
L 177.282904 102.759763 
L 178.229308 128.583529 
L 179.175712 117.557895 
L 180.122117 112.5 
L 181.068521 115.067485 
L 182.014925 119.392941 
L 182.96133 118.966887 
L 183.907734 113.462069 
L 184.854138 86.480899 
L 185.800543 102.751807 
L 186.746947 110.553488 
L 187.693351 108.514286 
L 188.639756 114.541463 
L 189.58616 109.08777 
L 190.532564 118.394366 
L 191.478969 138.508475 
L 192.425373 106.129134 
L 193.371777 116.727273 
L 194.318182 130.648544 
L 195.264586 127.008 
L 196.210991 109.298361 
L 197.157395 103.2 
L 198.103799 149.510204 
L 199.050204 104.603774 
L 199.996608 111.401575 
L 200.943012 113.76 
L 201.889417 102.664748 
L 202.835821 99.370588 
L 203.782225 128.356835 
L 204.72863 98.198319 
L 205.675034 75.417722 
L 206.621438 75.147541 
L 207.567843 83.767164 
L 208.514247 90.53617 
L 209.460651 89.534694 
L 210.407056 71.853807 
L 211.35346 89.382857 
L 212.299864 92.119149 
L 213.246269 97 
L 214.192673 106.109497 
L 215.139077 99.6 
L 216.085482 102.339884 
L 217.031886 86.774026 
L 217.97829 79.081319 
L 218.924695 98.627933 
L 219.871099 97.92 
L 220.817503 109.71 
L 221.763908 107.492308 
L 222.710312 97.815789 
L 223.656716 99.416949 
L 224.603121 110.819277 
L 225.549525 81.69711 
L 226.495929 100.494545 
L 227.442334 105.905455 
L 228.388738 106.434783 
L 229.335142 129.458824 
L 230.281547 108.094737 
L 231.227951 108.514286 
L 232.174355 106.660465 
L 233.12076 105.06 
L 234.067164 90.695798 
L 235.013569 117.15 
L 235.959973 108.86087 
L 236.906377 107.287912 
L 237.852782 75.3 
L 238.799186 102.456 
L 239.74559 94.304348 
L 240.691995 101.469767 
L 241.638399 118.593103 
L 242.584803 89.914286 
L 243.531208 92.571429 
L 244.477612 79.655696 
L 245.424016 101.34 
L 246.370421 98.068966 
L 247.316825 88.32 
L 248.263229 105.238356 
L 249.209634 96.028916 
L 250.156038 94.304348 
L 251.102442 91.821176 
L 252.048847 121.558442 
L 252.995251 107.908861 
L 254.88806 97.960563 
L 254.88806 97.960563 
" style="fill:none;opacity:0.75;stroke:#000000;stroke-linecap:round;stroke-width:1.75;"/>
   </g>
   <g id="patch_3">
    <path d="M 67.5 252 
L 257.727273 252 
" style="fill:none;"/>
   </g>
   <g id="patch_4">
    <path d="M 257.727273 252 
L 257.727273 28.8 
" style="fill:none;"/>
   </g>
   <g id="patch_5">
    <path d="M 67.5 28.8 
L 257.727273 28.8 
" style="fill:none;"/>
   </g>
   <g id="patch_6">
    <path d="M 67.5 252 
L 67.5 28.8 
" style="fill:none;"/>
   </g>
  </g>
  <g id="axes_2">
   <g id="patch_7">
    <path d="M 295.772727 252 
L 486 252 
L 486 28.8 
L 295.772727 28.8 
z
" style="fill:#eaeaf2;"/>
   </g>
   <g id="matplotlib.axis_3">
    <g id="xtick_12">
     <g id="line2d_50">
      <path clip-path="url(#p767ac2691b)" d="M 295.772727 252 
L 295.772727 28.8 
" style="fill:none;stroke:#ffffff;stroke-linecap:round;"/>
     </g>
     <g id="line2d_51"/>
     <g id="line2d_52"/>
     <g id="text_17">
      <!-- 1816 -->
      <g style="fill:#262626;" transform="translate(297.980227273 279.36)rotate(-90.0)scale(0.08 -0.08)">
       <use xlink:href="#BitstreamVeraSerif-Roman-31"/>
       <use x="63.623046875" xlink:href="#BitstreamVeraSerif-Roman-38"/>
       <use x="127.24609375" xlink:href="#BitstreamVeraSerif-Roman-31"/>
       <use x="190.869140625" xlink:href="#BitstreamVeraSerif-Roman-36"/>
      </g>
     </g>
    </g>
    <g id="xtick_13">
     <g id="line2d_53">
      <path clip-path="url(#p767ac2691b)" d="M 314.700814 252 
L 314.700814 28.8 
" style="fill:none;stroke:#ffffff;stroke-linecap:round;"/>
     </g>
     <g id="line2d_54"/>
     <g id="line2d_55"/>
     <g id="text_18">
      <!-- 1836 -->
      <g style="fill:#262626;" transform="translate(316.908314111 279.36)rotate(-90.0)scale(0.08 -0.08)">
       <use xlink:href="#BitstreamVeraSerif-Roman-31"/>
       <use x="63.623046875" xlink:href="#BitstreamVeraSerif-Roman-38"/>
       <use x="127.24609375" xlink:href="#BitstreamVeraSerif-Roman-33"/>
       <use x="190.869140625" xlink:href="#BitstreamVeraSerif-Roman-36"/>
      </g>
     </g>
    </g>
    <g id="xtick_14">
     <g id="line2d_56">
      <path clip-path="url(#p767ac2691b)" d="M 333.628901 252 
L 333.628901 28.8 
" style="fill:none;stroke:#ffffff;stroke-linecap:round;"/>
     </g>
     <g id="line2d_57"/>
     <g id="line2d_58"/>
     <g id="text_19">
      <!-- 1856 -->
      <g style="fill:#262626;" transform="translate(335.83640095 279.36)rotate(-90.0)scale(0.08 -0.08)">
       <use xlink:href="#BitstreamVeraSerif-Roman-31"/>
       <use x="63.623046875" xlink:href="#BitstreamVeraSerif-Roman-38"/>
       <use x="127.24609375" xlink:href="#BitstreamVeraSerif-Roman-35"/>
       <use x="190.869140625" xlink:href="#BitstreamVeraSerif-Roman-36"/>
      </g>
     </g>
    </g>
    <g id="xtick_15">
     <g id="line2d_59">
      <path clip-path="url(#p767ac2691b)" d="M 352.556988 252 
L 352.556988 28.8 
" style="fill:none;stroke:#ffffff;stroke-linecap:round;"/>
     </g>
     <g id="line2d_60"/>
     <g id="line2d_61"/>
     <g id="text_20">
      <!-- 1876 -->
      <g style="fill:#262626;" transform="translate(354.764487788 279.36)rotate(-90.0)scale(0.08 -0.08)">
       <use xlink:href="#BitstreamVeraSerif-Roman-31"/>
       <use x="63.623046875" xlink:href="#BitstreamVeraSerif-Roman-38"/>
       <use x="127.24609375" xlink:href="#BitstreamVeraSerif-Roman-37"/>
       <use x="190.869140625" xlink:href="#BitstreamVeraSerif-Roman-36"/>
      </g>
     </g>
    </g>
    <g id="xtick_16">
     <g id="line2d_62">
      <path clip-path="url(#p767ac2691b)" d="M 371.485075 252 
L 371.485075 28.8 
" style="fill:none;stroke:#ffffff;stroke-linecap:round;"/>
     </g>
     <g id="line2d_63"/>
     <g id="line2d_64"/>
     <g id="text_21">
      <!-- 1896 -->
      <g style="fill:#262626;" transform="translate(373.692574627 279.36)rotate(-90.0)scale(0.08 -0.08)">
       <use xlink:href="#BitstreamVeraSerif-Roman-31"/>
       <use x="63.623046875" xlink:href="#BitstreamVeraSerif-Roman-38"/>
       <use x="127.24609375" xlink:href="#BitstreamVeraSerif-Roman-39"/>
       <use x="190.869140625" xlink:href="#BitstreamVeraSerif-Roman-36"/>
      </g>
     </g>
    </g>
    <g id="xtick_17">
     <g id="line2d_65">
      <path clip-path="url(#p767ac2691b)" d="M 390.413161 252 
L 390.413161 28.8 
" style="fill:none;stroke:#ffffff;stroke-linecap:round;"/>
     </g>
     <g id="line2d_66"/>
     <g id="line2d_67"/>
     <g id="text_22">
      <!-- 1916 -->
      <g style="fill:#262626;" transform="translate(392.620661465 279.36)rotate(-90.0)scale(0.08 -0.08)">
       <use xlink:href="#BitstreamVeraSerif-Roman-31"/>
       <use x="63.623046875" xlink:href="#BitstreamVeraSerif-Roman-39"/>
       <use x="127.24609375" xlink:href="#BitstreamVeraSerif-Roman-31"/>
       <use x="190.869140625" xlink:href="#BitstreamVeraSerif-Roman-36"/>
      </g>
     </g>
    </g>
    <g id="xtick_18">
     <g id="line2d_68">
      <path clip-path="url(#p767ac2691b)" d="M 409.341248 252 
L 409.341248 28.8 
" style="fill:none;stroke:#ffffff;stroke-linecap:round;"/>
     </g>
     <g id="line2d_69"/>
     <g id="line2d_70"/>
     <g id="text_23">
      <!-- 1936 -->
      <g style="fill:#262626;" transform="translate(411.548748304 279.36)rotate(-90.0)scale(0.08 -0.08)">
       <use xlink:href="#BitstreamVeraSerif-Roman-31"/>
       <use x="63.623046875" xlink:href="#BitstreamVeraSerif-Roman-39"/>
       <use x="127.24609375" xlink:href="#BitstreamVeraSerif-Roman-33"/>
       <use x="190.869140625" xlink:href="#BitstreamVeraSerif-Roman-36"/>
      </g>
     </g>
    </g>
    <g id="xtick_19">
     <g id="line2d_71">
      <path clip-path="url(#p767ac2691b)" d="M 428.269335 252 
L 428.269335 28.8 
" style="fill:none;stroke:#ffffff;stroke-linecap:round;"/>
     </g>
     <g id="line2d_72"/>
     <g id="line2d_73"/>
     <g id="text_24">
      <!-- 1956 -->
      <g style="fill:#262626;" transform="translate(430.476835142 279.36)rotate(-90.0)scale(0.08 -0.08)">
       <use xlink:href="#BitstreamVeraSerif-Roman-31"/>
       <use x="63.623046875" xlink:href="#BitstreamVeraSerif-Roman-39"/>
       <use x="127.24609375" xlink:href="#BitstreamVeraSerif-Roman-35"/>
       <use x="190.869140625" xlink:href="#BitstreamVeraSerif-Roman-36"/>
      </g>
     </g>
    </g>
    <g id="xtick_20">
     <g id="line2d_74">
      <path clip-path="url(#p767ac2691b)" d="M 447.197422 252 
L 447.197422 28.8 
" style="fill:none;stroke:#ffffff;stroke-linecap:round;"/>
     </g>
     <g id="line2d_75"/>
     <g id="line2d_76"/>
     <g id="text_25">
      <!-- 1976 -->
      <g style="fill:#262626;" transform="translate(449.404921981 279.36)rotate(-90.0)scale(0.08 -0.08)">
       <use xlink:href="#BitstreamVeraSerif-Roman-31"/>
       <use x="63.623046875" xlink:href="#BitstreamVeraSerif-Roman-39"/>
       <use x="127.24609375" xlink:href="#BitstreamVeraSerif-Roman-37"/>
       <use x="190.869140625" xlink:href="#BitstreamVeraSerif-Roman-36"/>
      </g>
     </g>
    </g>
    <g id="xtick_21">
     <g id="line2d_77">
      <path clip-path="url(#p767ac2691b)" d="M 466.125509 252 
L 466.125509 28.8 
" style="fill:none;stroke:#ffffff;stroke-linecap:round;"/>
     </g>
     <g id="line2d_78"/>
     <g id="line2d_79"/>
     <g id="text_26">
      <!-- 1996 -->
      <g style="fill:#262626;" transform="translate(468.33300882 279.36)rotate(-90.0)scale(0.08 -0.08)">
       <use xlink:href="#BitstreamVeraSerif-Roman-31"/>
       <use x="63.623046875" xlink:href="#BitstreamVeraSerif-Roman-39"/>
       <use x="127.24609375" xlink:href="#BitstreamVeraSerif-Roman-39"/>
       <use x="190.869140625" xlink:href="#BitstreamVeraSerif-Roman-36"/>
      </g>
     </g>
    </g>
    <g id="xtick_22">
     <g id="line2d_80">
      <path clip-path="url(#p767ac2691b)" d="M 485.053596 252 
L 485.053596 28.8 
" style="fill:none;stroke:#ffffff;stroke-linecap:round;"/>
     </g>
     <g id="line2d_81"/>
     <g id="line2d_82"/>
     <g id="text_27">
      <!-- 2016 -->
      <g style="fill:#262626;" transform="translate(487.261095658 279.36)rotate(-90.0)scale(0.08 -0.08)">
       <use xlink:href="#BitstreamVeraSerif-Roman-32"/>
       <use x="63.623046875" xlink:href="#BitstreamVeraSerif-Roman-30"/>
       <use x="127.24609375" xlink:href="#BitstreamVeraSerif-Roman-31"/>
       <use x="190.869140625" xlink:href="#BitstreamVeraSerif-Roman-36"/>
      </g>
     </g>
    </g>
   </g>
   <g id="matplotlib.axis_4">
    <g id="ytick_6">
     <g id="line2d_83">
      <path clip-path="url(#p767ac2691b)" d="M 295.772727 252 
L 486 252 
" style="fill:none;stroke:#ffffff;stroke-linecap:round;"/>
     </g>
     <g id="line2d_84"/>
     <g id="line2d_85"/>
     <g id="text_28">
      <!-- 0% -->
      <g style="fill:#262626;" transform="translate(276.081477273 254.2075)scale(0.08 -0.08)">
       <use xlink:href="#BitstreamVeraSerif-Roman-30"/>
       <use x="63.623046875" xlink:href="#BitstreamVeraSerif-Roman-25"/>
      </g>
     </g>
    </g>
    <g id="ytick_7">
     <g id="line2d_86">
      <path clip-path="url(#p767ac2691b)" d="M 295.772727 196.2 
L 486 196.2 
" style="fill:none;stroke:#ffffff;stroke-linecap:round;"/>
     </g>
     <g id="line2d_87"/>
     <g id="line2d_88"/>
     <g id="text_29">
      <!-- 25% -->
      <g style="fill:#262626;" transform="translate(270.991477273 198.4075)scale(0.08 -0.08)">
       <use xlink:href="#BitstreamVeraSerif-Roman-32"/>
       <use x="63.623046875" xlink:href="#BitstreamVeraSerif-Roman-35"/>
       <use x="127.24609375" xlink:href="#BitstreamVeraSerif-Roman-25"/>
      </g>
     </g>
    </g>
    <g id="ytick_8">
     <g id="line2d_89">
      <path clip-path="url(#p767ac2691b)" d="M 295.772727 140.4 
L 486 140.4 
" style="fill:none;stroke:#ffffff;stroke-linecap:round;"/>
     </g>
     <g id="line2d_90"/>
     <g id="line2d_91"/>
     <g id="text_30">
      <!-- 50% -->
      <g style="fill:#262626;" transform="translate(270.991477273 142.6075)scale(0.08 -0.08)">
       <use xlink:href="#BitstreamVeraSerif-Roman-35"/>
       <use x="63.623046875" xlink:href="#BitstreamVeraSerif-Roman-30"/>
       <use x="127.24609375" xlink:href="#BitstreamVeraSerif-Roman-25"/>
      </g>
     </g>
    </g>
    <g id="ytick_9">
     <g id="line2d_92">
      <path clip-path="url(#p767ac2691b)" d="M 295.772727 84.6 
L 486 84.6 
" style="fill:none;stroke:#ffffff;stroke-linecap:round;"/>
     </g>
     <g id="line2d_93"/>
     <g id="line2d_94"/>
     <g id="text_31">
      <!-- 75% -->
      <g style="fill:#262626;" transform="translate(270.991477273 86.8075)scale(0.08 -0.08)">
       <use xlink:href="#BitstreamVeraSerif-Roman-37"/>
       <use x="63.623046875" xlink:href="#BitstreamVeraSerif-Roman-35"/>
       <use x="127.24609375" xlink:href="#BitstreamVeraSerif-Roman-25"/>
      </g>
     </g>
    </g>
    <g id="ytick_10">
     <g id="line2d_95">
      <path clip-path="url(#p767ac2691b)" d="M 295.772727 28.8 
L 486 28.8 
" style="fill:none;stroke:#ffffff;stroke-linecap:round;"/>
     </g>
     <g id="line2d_96"/>
     <g id="line2d_97"/>
     <g id="text_32">
      <!-- 100% -->
      <g style="fill:#262626;" transform="translate(265.901477273 31.0075)scale(0.08 -0.08)">
       <use xlink:href="#BitstreamVeraSerif-Roman-31"/>
       <use x="63.623046875" xlink:href="#BitstreamVeraSerif-Roman-30"/>
       <use x="127.24609375" xlink:href="#BitstreamVeraSerif-Roman-30"/>
       <use x="190.869140625" xlink:href="#BitstreamVeraSerif-Roman-25"/>
      </g>
     </g>
    </g>
   </g>
   <g id="line2d_98">
    <path clip-path="url(#p767ac2691b)" d="M 295.772727 108.514286 
L 296.719132 119.142857 
L 297.665536 86.697744 
L 298.61194 104.166234 
L 299.558345 112.647619 
L 300.504749 96.45993 
L 301.451153 115.489286 
L 302.397558 100.26798 
L 303.343962 105.792334 
L 304.290366 104.380952 
L 305.236771 138.145455 
L 306.183175 101.390881 
L 307.129579 131.414026 
L 308.075984 119.263636 
L 309.022388 117.744361 
L 309.968792 113.069388 
L 310.915197 105.667347 
L 311.861601 99.570732 
L 312.808005 99.979954 
L 313.75441 99.284211 
L 314.700814 91.821176 
L 315.647218 103.731429 
L 316.593623 92.571429 
L 317.540027 87.328 
L 318.486431 78.976744 
L 319.432836 68.48 
L 320.37924 113.909091 
L 321.325645 95.905882 
L 322.272049 67.430769 
L 323.218453 89.4 
L 324.164858 79.257447 
L 325.111262 101.822222 
L 326.057666 102.511111 
L 327.004071 87.847619 
L 327.950475 104.874123 
L 328.896879 104.212245 
L 329.843284 132.361017 
L 330.789688 114.222222 
L 331.736092 111.233803 
L 332.682497 91.2 
L 333.628901 117.15 
L 334.575305 70.542195 
L 335.52171 101.043478 
L 336.468114 93.495652 
L 337.414518 99.370588 
L 338.360923 77.26096 
L 339.307327 91.390476 
L 340.253731 112.701687 
L 341.200136 95.381695 
L 342.14654 73.557784 
L 343.092944 81.546269 
L 344.039349 90.853448 
L 344.985753 81.955145 
L 345.932157 85.099106 
L 346.878562 86.666667 
L 347.824966 85.163636 
L 348.77137 94.725129 
L 349.717775 90.514863 
L 350.664179 98.962814 
L 352.556988 85.59691 
L 353.503392 94.56 
L 354.449796 88.650667 
L 355.396201 66.050202 
L 356.342605 65.036653 
L 357.289009 88.871897 
L 358.235414 77.453435 
L 359.181818 97.591519 
L 360.128223 87.061765 
L 361.074627 97.955556 
L 362.021031 83.087412 
L 362.967436 79.262609 
L 363.91384 93.056103 
L 364.860244 84.95712 
L 365.806649 80.201168 
L 366.753053 85.98181 
L 367.699457 79.262609 
L 368.645862 96.310554 
L 369.592266 87.060317 
L 370.53867 83.588022 
L 371.485075 88.633413 
L 372.431479 91.162746 
L 373.377883 88.076951 
L 374.324288 90.285714 
L 375.270692 80.698335 
L 376.217096 74.256585 
L 377.163501 76.333333 
L 378.109905 83.035514 
L 379.056309 91.995939 
L 380.002714 94.363218 
L 380.949118 78.265291 
L 381.895522 84.845198 
L 382.841927 81.333494 
L 383.788331 71.492617 
L 384.734735 82.92752 
L 385.68114 86.723122 
L 386.627544 85.030556 
L 387.573948 86.302373 
L 388.520353 100.032117 
L 389.466757 81.807262 
L 390.413161 84.969536 
L 392.30597 91.94562 
L 393.252374 92.610552 
L 394.198779 105.116364 
L 395.145183 90.037989 
L 396.091588 90.460528 
L 397.037992 89.012093 
L 397.984396 97.128679 
L 398.930801 96.181132 
L 399.877205 97.154229 
L 400.823609 120.854237 
L 401.770014 107.26875 
L 402.716418 97.374638 
L 403.662822 93.9 
L 404.609227 93.788623 
L 405.555631 103.640237 
L 406.502035 126.103529 
L 407.44844 112.626901 
L 408.394844 112.81 
L 409.341248 113.241718 
L 410.287653 116.475294 
L 411.234057 123.88285 
L 412.180461 109.979856 
L 413.126866 92.207388 
L 414.07327 109.325301 
L 415.019674 109.441949 
L 415.966079 110.108571 
L 416.912483 111.819512 
L 417.858887 104.974342 
L 418.805292 121.887324 
L 419.751696 115.810169 
L 420.6981 97.146457 
L 421.644505 128.751515 
L 422.590909 126.796117 
L 423.537313 120.165517 
L 424.483718 107.468852 
L 425.430122 100.349425 
L 426.376526 124.26506 
L 427.322931 111.622642 
L 428.269335 104.904317 
L 429.215739 93.76 
L 430.162144 98.917986 
L 431.108548 92.623529 
L 432.054953 105.697842 
L 433.001357 98.876851 
L 433.947761 86.718987 
L 434.894166 93.442623 
L 435.84057 98.816266 
L 436.786974 97.571631 
L 437.733379 102.693878 
L 438.679783 97.15736 
L 439.626187 105.157895 
L 440.572592 110.191034 
L 441.518996 99.411111 
L 442.4654 103.344466 
L 443.411805 100 
L 445.304613 95.953247 
L 446.251018 91.943911 
L 448.143826 104.32 
L 449.090231 108.78 
L 450.036635 99.702564 
L 450.983039 100.915789 
L 451.929444 97.59548 
L 452.875848 103.648193 
L 453.822252 89.724855 
L 454.768657 106.055758 
L 455.715061 106.055758 
L 456.661465 95.652174 
L 457.60787 121.386667 
L 458.554274 104.505263 
L 459.500678 98.24 
L 461.393487 106.650835 
L 462.339891 97.637383 
L 463.286296 110.433333 
L 464.2327 103.2 
L 465.179104 109.468132 
L 466.125509 93.125 
L 467.071913 102.704 
L 468.018318 97.53913 
L 468.964722 94.345149 
L 469.911126 102.438875 
L 470.857531 98.771429 
L 471.803935 101.72381 
L 472.750339 81.912748 
L 473.696744 95.45 
L 474.643148 95.788506 
L 475.589552 97.451412 
L 476.535957 108.635616 
L 477.482361 98.120482 
L 478.428765 104.547826 
L 479.37517 107.576471 
L 480.321574 115.761039 
L 481.267978 106.339241 
L 482.214383 99.893333 
L 483.160787 103.898592 
L 483.160787 103.898592 
" style="fill:none;opacity:0.75;stroke:#6f92f3;stroke-linecap:round;stroke-width:1.75;"/>
   </g>
   <g id="patch_8">
    <path d="M 295.772727 252 
L 486 252 
" style="fill:none;"/>
   </g>
   <g id="patch_9">
    <path d="M 486 252 
L 486 28.8 
" style="fill:none;"/>
   </g>
   <g id="patch_10">
    <path d="M 295.772727 28.8 
L 486 28.8 
" style="fill:none;"/>
   </g>
   <g id="patch_11">
    <path d="M 295.772727 252 
L 295.772727 28.8 
" style="fill:none;"/>
   </g>
  </g>
 </g>
 <defs>
  <clipPath id="p304e22c1a3">
   <rect height="223.2" width="190.227272727" x="67.5" y="28.8"/>
  </clipPath>
  <clipPath id="p767ac2691b">
   <rect height="223.2" width="190.227272727" x="295.772727273" y="28.8"/>
  </clipPath>
 </defs>
</svg>
